<?xml version="1.0" encoding="UTF-8"?>
<svg width="122px" height="122px" viewBox="0 0 122 122" version="1.1" xmlns="http://www.w3.org/2000/svg" xmlns:xlink="http://www.w3.org/1999/xlink">
    <!-- Generator: Sketch 52.5 (67469) - http://www.bohemiancoding.com/sketch -->
    <title>nguoi mua</title>
    <desc>Created with Sketch.</desc>
    <defs>
        <polygon id="path-1" points="0.182663462 0.0518235294 10.9152788 0.0518235294 10.9152788 10 0.182663462 10"></polygon>
        <polygon id="path-3" points="0.161594231 0.0518235294 10.8942096 0.0518235294 10.8942096 10 0.161594231 10"></polygon>
    </defs>
    <g id="Page-1" stroke="none" stroke-width="1" fill="none" fill-rule="evenodd">
        <g id="home" transform="translate(-787.000000, -551.000000)">
            <g id="nguoi-mua" transform="translate(788.000000, 552.000000)">
                <circle id="Oval-Copy" stroke="#589F39" stroke-width="2" cx="60" cy="60" r="60"></circle>
                <g id="Group-13" transform="translate(26.000000, 32.000000)">
                    <g id="Group-3" transform="translate(21.000000, 49.000000)">
                        <mask id="mask-2" fill="white">
                            <use xlink:href="#path-1"></use>
                        </mask>
                        <g id="Clip-2"></g>
                        <path d="M5.54897115,7.61888235 C4.00643269,7.61888235 2.75116346,6.45554902 2.75116346,5.02554902 C2.75116346,3.5957451 4.00643269,2.43241176 5.54897115,2.43241176 C7.09172115,2.43241176 8.34677885,3.5957451 8.34677885,5.02554902 C8.34677885,6.45554902 7.09172115,7.61888235 5.54897115,7.61888235 M5.54897115,0.0518235294 C2.58997115,0.0518235294 0.182663462,2.283 0.182663462,5.0257451 C0.182663462,7.76868627 2.58997115,10.0000588 5.54897115,10.0000588 C8.50797115,10.0000588 10.9152788,7.76868627 10.9152788,5.0257451 C10.9150673,2.283 8.50775962,0.0518235294 5.54897115,0.0518235294" id="Fill-1" fill="#589F39" mask="url(#mask-2)"></path>
                    </g>
                    <g id="Group-6" transform="translate(41.000000, 49.000000)">
                        <mask id="mask-4" fill="white">
                            <use xlink:href="#path-3"></use>
                        </mask>
                        <g id="Clip-5"></g>
                        <path d="M5.52790192,7.61888235 C3.98515192,7.61888235 2.73009423,6.45554902 2.73009423,5.02554902 C2.73009423,3.5957451 3.98515192,2.43241176 5.52790192,2.43241176 C7.07044038,2.43241176 8.32549808,3.5957451 8.32549808,5.02554902 C8.32549808,6.45554902 7.07044038,7.61888235 5.52790192,7.61888235 M5.52790192,0.0518235294 C2.56890192,0.0518235294 0.161594231,2.283 0.161594231,5.0257451 C0.161594231,7.76868627 2.56890192,10.0000588 5.52790192,10.0000588 C8.48690192,10.0000588 10.8942096,7.76868627 10.8942096,5.0257451 C10.8939981,2.283 8.48669038,0.0518235294 5.52790192,0.0518235294" id="Fill-4" fill="#589F39" mask="url(#mask-4)"></path>
                    </g>
                    <path d="M25.2728317,22 L47.7273779,22 C48.4291022,22 49,21.3272113 49,20.5002471 C49,19.6727887 48.4291022,19 47.7273779,19 L25.2728317,19 C24.5708978,19 24,19.6727887 24,20.5002471 C24,21.3272113 24.5708978,22 25.2728317,22" id="Fill-7" fill="#589F39"></path>
                    <path d="M45.7023163,26 L25.298325,26 C24.582568,26 24,26.6731719 24,27.5 C24,28.3270751 24.582568,29 25.298325,29 L45.7021025,29 C46.4178595,29 47,28.3270751 47,27.5 C47,26.6731719 46.4180733,26 45.7023163,26" id="Fill-9" fill="#589F39"></path>
                    <path d="M56.9313416,34.7773317 L16.5701891,34.7773317 L12.0114604,12.7717932 L61.489858,12.7717932 L56.9313416,34.7773317 Z M61.1248541,10.2095839 L11.4805071,10.2095839 L10.434092,5.15691829 C10.2452237,4.24629043 9.62089727,3.48170068 8.76335037,3.11154048 L1.80196249,0.106785098 C1.63707411,0.0356653786 1.46306063,0 1.28883494,0 C1.12903964,0 0.969032128,0.0299673595 0.815815384,0.0899020785 C0.496012569,0.215680573 0.244329664,0.457529827 0.107240999,0.77134295 C-0.0298476665,1.08557815 -0.0355773785,1.43379043 0.0904762858,1.75224638 C0.216954373,2.07070233 0.460361028,2.32078206 0.7757074,2.45711244 L7.87906482,5.52327981 L15.584042,42.718682 C15.8580071,44.0406224 17.0419354,45 18.3994527,45 L56.3952952,45 C57.1055673,45 57.6834193,44.4253442 57.6834193,43.7187899 C57.6834193,43.0122355 57.1055673,42.4375797 56.3952952,42.4375797 L18.1568949,42.4375797 L17.1011424,37.339541 L56.6887838,37.339541 C58.0463011,37.339541 59.2300171,36.3799524 59.5039823,35.0578009 L63.9402648,13.6442232 C64.1153394,12.799017 63.9014301,11.9308078 63.3530755,11.2618181 C62.804933,10.5930395 61.9927994,10.2095839 61.1248541,10.2095839 Z" id="Fill-11" fill="#589F39"></path>
                </g>
            </g>
        </g>
    </g>
</svg>