<?xml version="1.0" encoding="UTF-8"?>
<svg width="122px" height="122px" viewBox="0 0 122 122" version="1.1" xmlns="http://www.w3.org/2000/svg" xmlns:xlink="http://www.w3.org/1999/xlink">
    <!-- Generator: Sketch 52.5 (67469) - http://www.bohemiancoding.com/sketch -->
    <title>nguoi ban</title>
    <desc>Created with Sketch.</desc>
    <defs>
        <polygon id="path-1" points="0 0.0704683952 62.8080158 0.0704683952 62.8080158 56.0952181 0 56.0952181"></polygon>
    </defs>
    <g id="Page-1" stroke="none" stroke-width="1" fill="none" fill-rule="evenodd">
        <g id="home" transform="translate(-119.000000, -551.000000)">
            <g id="nguoi-ban" transform="translate(120.000000, 552.000000)">
                <circle id="Oval" stroke="#FE9900" stroke-width="2" cx="60" cy="60" r="60"></circle>
                <g id="Group-6" transform="translate(28.000000, 31.000000)">
                    <path d="M45.7239423,42.2163646 C45.7239423,43.0509873 45.0428529,43.7301596 44.2056844,43.7301596 L35.7943156,43.7301596 C34.957337,43.7301596 34.2762476,43.0509873 34.2762476,42.2163646 L34.2762476,35.7836354 C34.2762476,34.9490127 34.957337,34.2698404 35.7943156,34.2698404 L44.2056844,34.2698404 C45.0428529,34.2698404 45.7239423,34.9490127 45.7239423,35.7836354 L45.7239423,42.2163646 Z M44.2056844,32 L35.7943156,32 C33.7022489,32 32,33.6974574 32,35.7836354 L32,42.2163646 C32,44.3027319 33.7022489,46 35.7943156,46 L44.2056844,46 C46.2977511,46 48,44.3027319 48,42.2163646 L48,35.7836354 C48,33.6974574 46.2977511,32 44.2056844,32 Z" id="Fill-1" fill="#FE9900"></path>
                    <g id="Group-5">
                        <mask id="mask-2" fill="white">
                            <use xlink:href="#path-1"></use>
                        </mask>
                        <g id="Clip-4"></g>
                        <path d="M60.3726659,19.4504549 C59.8199043,22.5686315 57.1721489,24.8318048 54.076957,24.8318048 C50.9724028,24.8318048 48.3301087,22.5676333 47.793926,19.448259 L47.7133718,18.9799336 L60.4561458,18.9799336 L60.3726659,19.4504549 Z M54.9997217,53.7020875 L28.5323099,53.7020875 L28.5323099,36.0817946 C28.5323099,33.2880122 26.3117062,31.0154564 23.5822263,31.0154564 L19.0475916,31.0154564 C16.3181118,31.0154564 14.097508,33.2880122 14.097508,36.0817946 L14.097508,53.7156621 L7.79536254,53.7156621 L7.79536254,27.1820156 L8.21315201,27.2125586 C8.381087,27.2247358 8.55116749,27.2247358 8.73100031,27.2247358 C11.6368022,27.2247358 14.3428765,25.7496906 15.9695638,23.2787053 L16.2931458,22.7872232 L16.6165328,23.2787053 C18.2434152,25.7496906 20.9492944,27.2247358 23.8549012,27.2247358 C26.74783,27.2247358 29.4540994,25.7490917 31.0944399,23.2773079 L31.4184121,22.7892195 L31.7404337,23.2787053 C33.3673161,25.7496906 36.0685142,27.2247358 38.9659291,27.2247358 C41.863539,27.2247358 44.5647372,25.7496906 46.1916195,23.2787053 L46.5150065,22.7872232 L46.8383935,23.2787053 C48.4652759,25.7496906 51.1711551,27.2247358 54.076957,27.2247358 C54.1629724,27.2247358 54.2458672,27.2215418 54.328957,27.2183478 C54.4212139,27.2149541 54.513861,27.2115604 54.6096288,27.2115604 L54.9997217,27.2115604 L54.9997217,53.7020875 Z M26.2071613,53.7020875 L16.4487929,53.7020875 L16.4487929,36.0817946 C16.4487929,34.6077475 17.6204368,33.4085871 19.0604647,33.4085871 L23.5950994,33.4085871 C25.0353223,33.4085871 26.2071613,34.6077475 26.2071613,36.0817946 L26.2071613,53.7020875 Z M2.44796935,19.4350836 L2.36741517,18.9665586 L15.1076536,18.9665586 L15.0270994,19.4350836 C14.4909167,22.5544579 11.8429663,24.8184298 8.73100031,24.8184298 L8.70232848,24.8184298 C5.61318297,24.8184298 2.9849322,22.5588497 2.44796935,19.4350836 Z M30.2186814,18.9665586 L30.1381272,19.4350836 C29.6019446,22.5544579 26.9594554,24.8184298 23.8549012,24.8184298 C20.7571737,24.8184298 18.1094183,22.5550568 17.5591923,19.4368802 L17.4762975,18.9665586 L30.2186814,18.9665586 Z M45.3297093,18.9665586 L45.2491551,19.4350836 C44.7129724,22.5544579 42.0704833,24.8184298 38.9659291,24.8184298 C35.8613749,24.8184298 33.2190808,22.5544579 32.6828981,19.4350836 L32.602344,18.9665586 L45.3297093,18.9665586 Z M11.2976164,2.47695411 L51.4974678,2.47695411 L51.6094245,2.67877719 L59.3340437,16.5868029 L3.47449876,16.5868029 L11.2976164,2.47695411 Z M53.1922263,0.679710591 C52.9868424,0.309402169 52.5897279,0.0704484325 52.1799353,0.0704484325 L10.6151489,0.0704484325 C10.1936536,0.0704484325 9.80668142,0.302215591 9.60519845,0.675518421 L0.15695387,17.7011219 C0.0533842105,17.8921651 -5.85139319e-05,18.0907941 -5.85139319e-05,18.2888243 C-5.85139319e-05,21.8196303 2.05065975,25.0274395 5.22445542,26.4607626 L5.45714582,26.5659661 L5.45714582,54.8986528 C5.45714582,55.5586203 5.9816257,56.0952181 6.62605913,56.0952181 L56.16883,56.0952181 C56.8134585,56.0952181 57.3379384,55.5586203 57.3379384,54.8986528 L57.3379384,27.0255079 C57.3379384,26.9963623 57.3398889,26.9718082 57.336378,26.9480526 L57.2550437,26.6204644 L57.5579508,26.487313 C60.7473502,25.0523928 62.8080158,21.8344027 62.8080158,18.2888243 C62.8080158,18.0738258 62.7574988,17.8797882 62.6574399,17.7125006 L53.1922263,0.679710591 Z" id="Fill-3" fill="#FE9900" mask="url(#mask-2)"></path>
                    </g>
                </g>
            </g>
        </g>
    </g>
</svg>